<svg preserveAspectRatio="none" width="100%" height="100%" overflow="visible" style="display: block;" viewBox="0 0 30 30" fill="none" xmlns="http://www.w3.org/2000/svg">
<g id="star">
<path id="Vector" d="M22.075 28.3375C21.4125 28.3375 20.5625 28.125 19.5 27.5L15.7625 25.2875C15.375 25.0625 14.625 25.0625 14.25 25.2875L10.5 27.5C8.2875 28.8125 6.9875 28.2875 6.4 27.8625C5.825 27.4375 4.925 26.35 5.5125 23.85L6.4 20.0125C6.5 19.6125 6.3 18.925 6 18.625L2.9 15.525C1.35 13.975 1.475 12.65 1.6875 12C1.9 11.35 2.575 10.2 4.725 9.8375L8.7125 9.175C9.0875 9.1125 9.625 8.7125 9.7875 8.375L12 3.9625C13 1.95 14.3125 1.65 15 1.65C15.6875 1.65 17 1.95 18 3.9625L20.2 8.3625C20.375 8.7 20.9125 9.1 21.2875 9.1625L25.275 9.825C27.4375 10.1875 28.1125 11.3375 28.3125 11.9875C28.5125 12.6375 28.6375 13.9625 27.1 15.5125L24 18.625C23.7 18.925 23.5125 19.6 23.6 20.0125L24.4875 23.85C25.0625 26.35 24.175 27.4375 23.6 27.8625C23.2875 28.0875 22.7875 28.3375 22.075 28.3375ZM15 23.2375C15.6125 23.2375 16.225 23.3875 16.7125 23.675L20.45 25.8875C21.5375 26.5375 22.225 26.5375 22.4875 26.35C22.75 26.1625 22.9375 25.5 22.6625 24.275L21.775 20.4375C21.5375 19.4 21.925 18.0625 22.675 17.3L25.775 14.2C26.3875 13.5875 26.6625 12.9875 26.5375 12.575C26.4 12.1625 25.825 11.825 24.975 11.6875L20.9875 11.025C20.025 10.8625 18.975 10.0875 18.5375 9.2125L16.3375 4.8125C15.9375 4.0125 15.4375 3.5375 15 3.5375C14.5625 3.5375 14.0625 4.0125 13.675 4.8125L11.4625 9.2125C11.025 10.0875 9.975 10.8625 9.0125 11.025L5.0375 11.6875C4.1875 11.825 3.6125 12.1625 3.475 12.575C3.3375 12.9875 3.625 13.6 4.2375 14.2L7.3375 17.3C8.0875 18.05 8.475 19.4 8.2375 20.4375L7.35 24.275C7.0625 25.5125 7.2625 26.1625 7.525 26.35C7.7875 26.5375 8.4625 26.525 9.5625 25.8875L13.3 23.675C13.775 23.3875 14.3875 23.2375 15 23.2375Z" fill="var(--fill-0, #7037C4)"/>
<g id="Vector_2" opacity="0">
</g>
</g>
</svg>
