<svg preserveAspectRatio="none" width="100%" height="100%" overflow="visible" style="display: block;" viewBox="0 0 48 55.3214" fill="none" xmlns="http://www.w3.org/2000/svg">
<g id="Vector">
<path d="M13.9227 15.3768C14.1356 14.8672 13.8952 14.2815 13.3856 14.0685C12.876 13.8556 12.2903 14.0961 12.0773 14.6056C11.383 16.2672 11 18.0901 11 20C11 20.7314 11.0562 21.4504 11.1646 22.1526C11.2489 22.6984 11.7597 23.0726 12.3055 22.9883C12.8513 22.904 13.2255 22.3932 13.1412 21.8474C13.0483 21.2458 13 20.6289 13 20C13 18.3595 13.3286 16.7984 13.9227 15.3768Z" fill="var(--fill-0, #424242)"/>
<path d="M35.9227 14.6056C35.7097 14.0961 35.124 13.8556 34.6144 14.0685C34.1048 14.2815 33.8644 14.8672 34.0773 15.3768C34.6714 16.7984 35 18.3595 35 20C35 20.6289 34.9517 21.2458 34.8588 21.8474C34.7745 22.3932 35.1487 22.904 35.6945 22.9883C36.2403 23.0726 36.7511 22.6984 36.8354 22.1526C36.9438 21.4504 37 20.7314 37 20C37 18.0901 36.617 16.2672 35.9227 14.6056Z" fill="var(--fill-0, #424242)"/>
<path d="M9.29984 10.8761C9.79759 11.1154 10.0071 11.7129 9.76778 12.2107C8.6351 14.5665 8 17.2077 8 19.9999C8 21.6409 8.21932 23.2291 8.62969 24.7374C8.77467 25.2703 8.46019 25.8199 7.92728 25.9649C7.39436 26.1099 6.84482 25.7954 6.69983 25.2625C6.24334 23.5845 6 21.8199 6 19.9999C6 16.9013 6.70539 13.9645 7.96529 11.344C8.2046 10.8463 8.8021 10.6368 9.29984 10.8761Z" fill="var(--fill-0, #424242)"/>
<path d="M38.7002 10.8761C39.1979 10.6368 39.7954 10.8463 40.0347 11.344C41.2946 13.9645 42 16.9013 42 19.9999C42 21.8199 41.7567 23.5845 41.3002 25.2625C41.1552 25.7954 40.6056 26.1099 40.0727 25.9649C39.5398 25.8199 39.2253 25.2703 39.3703 24.7374C39.7807 23.2291 40 21.6409 40 19.9999C40 17.2077 39.3649 14.5665 38.2322 12.2107C37.9929 11.7129 38.2024 11.1154 38.7002 10.8761Z" fill="var(--fill-0, #424242)"/>
<path fill-rule="evenodd" clip-rule="evenodd" d="M27 11C27 11.9011 26.6027 12.7094 25.9737 13.2594C27.141 13.5698 28.3217 14.1777 29.3307 15.1827C30.9348 16.7805 32 19.2759 32 22.8695C32 25.7789 32.0071 27.6166 32.4655 29.3156C32.9119 30.9701 33.8108 32.5619 35.7613 34.8515C36.0141 35.1484 36.0714 35.5652 35.9079 35.9192C35.7444 36.2733 35.39 36.5 35 36.5H13C12.61 36.5 12.2556 36.2733 12.0921 35.9192C11.9286 35.5652 11.9859 35.1484 12.2388 34.8515C14.1892 32.5619 15.0882 30.9701 15.5345 29.3156C15.9929 27.6166 16 25.7789 16 22.8695C16 19.2759 17.0652 16.7805 18.6693 15.1827C19.6783 14.1777 20.859 13.5698 22.0263 13.2594C21.3973 12.7094 21 11.9011 21 11C21 9.34315 22.3431 8 24 8C25.6569 8 27 9.34315 27 11ZM25 11C25 11.5523 24.5523 12 24 12C23.4477 12 23 11.5523 23 11C23 10.4477 23.4477 10 24 10C24.5523 10 25 10.4477 25 11ZM20.0807 16.5998C18.9348 17.7411 18 19.6805 18 22.8695L18 22.978C18.0001 25.7538 18.0002 27.8547 17.4655 29.8365C17.0448 31.3957 16.3081 32.8405 15.0795 34.5H32.9206C31.6919 32.8405 30.9552 31.3957 30.5345 29.8365C29.9999 27.8547 29.9999 25.7538 30 22.978L30 22.8695C30 19.6805 29.0652 17.7411 27.9193 16.5998C26.7612 15.4462 25.2801 15 24 15C22.7199 15 21.2389 15.4462 20.0807 16.5998Z" fill="var(--fill-0, #424242)"/>
<path d="M21.919 38.1058C21.7013 37.5983 21.1134 37.3633 20.6058 37.581C20.0982 37.7987 19.8633 38.3866 20.081 38.8942C20.7346 40.418 22.2359 41.5 24 41.5C25.7641 41.5 27.2654 40.418 27.919 38.8942C28.1367 38.3866 27.9018 37.7987 27.3942 37.581C26.8866 37.3633 26.2987 37.5983 26.081 38.1058C25.7247 38.9365 24.9196 39.5 24 39.5C23.0804 39.5 22.2753 38.9365 21.919 38.1058Z" fill="var(--fill-0, #424242)"/>
<path fill-rule="evenodd" clip-rule="evenodd" d="M5 0C2.23858 0 0 2.23857 0 5V41C0 43.7614 2.23858 46 5 46H13.5917C14.497 46 15.3539 46.4088 15.9234 47.1124L21.6683 54.2089C22.869 55.6922 25.131 55.6922 26.3317 54.2089L32.0766 47.1124C32.6461 46.4088 33.503 46 34.4083 46H43C45.7614 46 48 43.7614 48 41V5C48 2.23858 45.7614 0 43 0H5ZM2 5C2 3.34315 3.34315 2 5 2H43C44.6569 2 46 3.34315 46 5V41C46 42.6569 44.6569 44 43 44H34.4083C32.8995 44 31.4714 44.6813 30.5221 45.854L24.7772 52.9506C24.377 53.445 23.623 53.445 23.2228 52.9506L17.4779 45.854C16.5286 44.6813 15.1005 44 13.5917 44H5C3.34315 44 2 42.6569 2 41V5Z" fill="var(--fill-0, #424242)"/>
</g>
</svg>
