<svg preserveAspectRatio="none" width="100%" height="100%" overflow="visible" style="display: block;" viewBox="0 0 11.6564 23.3356" fill="none" xmlns="http://www.w3.org/2000/svg">
<path id="Vector" d="M10.2307 8.13466L2.77192 0.484654C2.46746 0.174236 2.0556 0 1.6263 0C1.197 0 0.785136 0.174236 0.480672 0.484654C0.328364 0.639592 0.207473 0.823928 0.124974 1.02703C0.042475 1.23013 0 1.44797 0 1.66799C0 1.88801 0.042475 2.10585 0.124974 2.30895C0.207473 2.51205 0.328364 2.69638 0.480672 2.85132L7.95567 10.4847C8.10798 10.6396 8.22887 10.8239 8.31137 11.027C8.39387 11.2301 8.43635 11.448 8.43635 11.668C8.43635 11.888 8.39387 12.1059 8.31137 12.309C8.22887 12.512 8.10798 12.6964 7.95567 12.8513L0.480672 20.4847C0.174679 20.7963 0.00191736 21.2198 0.000393629 21.6621C-0.0011301 22.1044 0.16871 22.5292 0.472549 22.843C0.776387 23.1568 1.18934 23.334 1.62055 23.3356C2.05177 23.3371 2.46593 23.163 2.77192 22.8513L10.2307 15.2013C11.1436 14.2638 11.6564 12.993 11.6564 11.668C11.6564 10.343 11.1436 9.07216 10.2307 8.13466V8.13466Z" fill="var(--fill-0, #244C6C)"/>
</svg>
