<svg preserveAspectRatio="none" width="100%" height="100%" overflow="visible" style="display: block;" viewBox="0 0 56 56" fill="none" xmlns="http://www.w3.org/2000/svg">
<g id="Vector">
<path fill-rule="evenodd" clip-rule="evenodd" d="M51 41C53.7614 41 56 38.7614 56 36V5C56 2.23857 53.7614 0 51 0H20C17.2386 0 15 2.23857 15 5V12C15 12.5523 15.4477 13 16 13C16.5523 13 17 12.5523 17 12V5C17 3.34315 18.3431 2 20 2H46.9996C46.3719 2.83566 46 3.87439 46 5C46 7.76143 48.2386 10 51 10C52.1256 10 53.1643 9.62806 54 9.00037V36C54 37.6569 52.6569 39 51 39H20C18.3431 39 17 37.6569 17 36V22.4142L22.2929 27.7071C22.6834 28.0976 23.3166 28.0976 23.7071 27.7071C24.0976 27.3166 24.0976 26.6834 23.7071 26.2929L16.7071 19.2929C16.3166 18.9024 15.6834 18.9024 15.2929 19.2929L8.29289 26.2929C7.90237 26.6834 7.90237 27.3166 8.29289 27.7071C8.68342 28.0976 9.31658 28.0976 9.70711 27.7071L15 22.4142V36C15 38.7614 17.2386 41 20 41H51ZM48 5C48 3.34315 49.3431 2 51 2C52.6569 2 54 3.34315 54 5C54 6.65685 52.6569 8 51 8C49.3431 8 48 6.65685 48 5Z" fill="var(--fill-0, #005657)"/>
<path fill-rule="evenodd" clip-rule="evenodd" d="M5 15C2.23858 15 0 17.2386 0 20V51C0 53.7614 2.23858 56 5 56H36C38.7614 56 41 53.7614 41 51V44C41 43.4477 40.5523 43 40 43C39.4477 43 39 43.4477 39 44V51C39 52.6569 37.6569 54 36 54H9.00037C9.62805 53.1643 10 52.1256 10 51C10 48.2386 7.76142 46 5 46C3.87439 46 2.83566 46.3719 2 46.9996V20C2 18.3431 3.34315 17 5 17H36C37.6569 17 39 18.3431 39 20V33.5858L33.7071 28.2929C33.3166 27.9024 32.6834 27.9024 32.2929 28.2929C31.9024 28.6834 31.9024 29.3166 32.2929 29.7071L39.2929 36.7071C39.6834 37.0976 40.3166 37.0976 40.7071 36.7071L47.7071 29.7071C48.0976 29.3166 48.0976 28.6834 47.7071 28.2929C47.3166 27.9024 46.6834 27.9024 46.2929 28.2929L41 33.5858V20C41 17.2386 38.7614 15 36 15H5ZM8 51C8 52.6569 6.65685 54 5 54C3.34315 54 2 52.6569 2 51C2 49.3431 3.34315 48 5 48C6.65685 48 8 49.3431 8 51Z" fill="var(--fill-0, #005657)"/>
</g>
</svg>
