<svg preserveAspectRatio="none" width="100%" height="100%" overflow="visible" style="display: block;" viewBox="0 0 56.3346 53" fill="none" xmlns="http://www.w3.org/2000/svg">
<g id="Vector">
<path d="M39.1673 4C39.1673 4.55228 38.7196 5 38.1673 5C37.615 5 37.1673 4.55228 37.1673 4C37.1673 3.44772 37.615 3 38.1673 3C38.7196 3 39.1673 3.44772 39.1673 4Z" fill="var(--fill-0, #005657)"/>
<path d="M35.1673 5C35.7196 5 36.1673 4.55228 36.1673 4C36.1673 3.44772 35.7196 3 35.1673 3C34.615 3 34.1673 3.44772 34.1673 4C34.1673 4.55228 34.615 5 35.1673 5Z" fill="var(--fill-0, #005657)"/>
<path d="M33.1673 4C33.1673 4.55228 32.7196 5 32.1673 5C31.615 5 31.1673 4.55228 31.1673 4C31.1673 3.44772 31.615 3 32.1673 3C32.7196 3 33.1673 3.44772 33.1673 4Z" fill="var(--fill-0, #005657)"/>
<path d="M36.8744 18.2929L32.8744 14.2929C32.4839 13.9024 31.8507 13.9024 31.4602 14.2929C31.0697 14.6834 31.0697 15.3166 31.4602 15.7071L34.7531 19L31.4602 22.2929C31.0697 22.6834 31.0697 23.3166 31.4602 23.7071C31.8507 24.0976 32.4839 24.0976 32.8744 23.7071L36.8744 19.7071C37.2649 19.3166 37.2649 18.6834 36.8744 18.2929Z" fill="var(--fill-0, #005657)"/>
<path d="M24.8744 14.2929C24.4839 13.9024 23.8507 13.9024 23.4602 14.2929L19.4602 18.2929C19.0697 18.6834 19.0697 19.3166 19.4602 19.7071L23.4602 23.7071C23.8507 24.0976 24.4839 24.0976 24.8744 23.7071C25.2649 23.3166 25.2649 22.6834 24.8744 22.2929L21.5815 19L24.8744 15.7071C25.2649 15.3166 25.2649 14.6834 24.8744 14.2929Z" fill="var(--fill-0, #005657)"/>
<path d="M30.1374 15.2425C30.2714 14.7067 29.9456 14.1638 29.4098 14.0299C28.874 13.8959 28.3311 14.2217 28.1972 14.7575L26.1972 22.7575C26.0632 23.2933 26.389 23.8362 26.9248 23.9701C27.4606 24.1041 28.0035 23.7783 28.1374 23.2425L30.1374 15.2425Z" fill="var(--fill-0, #005657)"/>
<path fill-rule="evenodd" clip-rule="evenodd" d="M14.1673 2C14.1673 0.895431 15.0627 0 16.1673 0H40.1673C41.2719 0 42.1673 0.895431 42.1673 2V30C42.1673 31.1046 41.2719 32 40.1673 32H16.1673C15.0627 32 14.1673 31.1046 14.1673 30V2ZM40.1673 2H16.1673V6H40.1673V2ZM40.1673 8H16.1673V30H40.1673V8Z" fill="var(--fill-0, #005657)"/>
<path fill-rule="evenodd" clip-rule="evenodd" d="M6.16731 9C5.61503 9 5.16731 9.44772 5.16731 10V40H51.1673V10C51.1673 9.44772 50.7196 9 50.1673 9H45.9064C45.3542 9 44.9064 8.55229 44.9064 8C44.9064 7.44772 45.3542 7 45.9064 7H50.1673C51.8242 7 53.1673 8.34314 53.1673 10V40.9923L55.6641 44.7423C56.5718 46.1055 56.5567 47.8843 55.6262 49.2319L54.2171 51.2728C53.4703 52.3543 52.2398 53 50.9255 53H5.40914C4.0948 53 2.86434 52.3543 2.11755 51.2728L0.708413 49.2319C-0.222115 47.8843 -0.237139 46.1055 0.670493 44.7423L3.16731 40.9923V10C3.16731 8.34315 4.51046 7 6.16731 7H10.4282C10.9805 7 11.4282 7.44772 11.4282 8C11.4282 8.55229 10.9805 9 10.4282 9H6.16731ZM4.89915 42H51.4355L53.9994 45.8508C54.1351 46.0546 54.2295 46.277 54.2828 46.5066C54.2449 46.5022 54.2064 46.5 54.1673 46.5H2.66731C2.41638 46.5 2.18704 46.5924 2.01147 46.7451C2.04514 46.4317 2.15299 46.1245 2.33525 45.8508L4.89915 42ZM2.63306 48.4994L3.76334 50.1364C4.13674 50.6772 4.75197 51 5.40914 51H50.9255C51.5826 51 52.1979 50.6772 52.5713 50.1364L53.7012 48.5H2.66731C2.65585 48.5 2.64443 48.4998 2.63306 48.4994Z" fill="var(--fill-0, #005657)"/>
</g>
</svg>
