<svg preserveAspectRatio="none" width="100%" height="100%" overflow="visible" style="display: block;" viewBox="0 0 48 55.167" fill="none" xmlns="http://www.w3.org/2000/svg">
<g id="Vector">
<path d="M28.5 24C27.9477 24 27.5 24.4477 27.5 25C27.5 25.5523 27.9477 26 28.5 26H31C31.5523 26 32 25.5523 32 25C32 24.4477 31.5523 24 31 24H28.5Z" fill="var(--fill-0, #005657)"/>
<path d="M27.5 29C27.5 28.4477 27.9477 28 28.5 28H31C31.5523 28 32 28.4477 32 29C32 29.5523 31.5523 30 31 30H28.5C27.9477 30 27.5 29.5523 27.5 29Z" fill="var(--fill-0, #005657)"/>
<path d="M28.5 32C27.9477 32 27.5 32.4477 27.5 33C27.5 33.5523 27.9477 34 28.5 34H31C31.5523 34 32 33.5523 32 33C32 32.4477 31.5523 32 31 32H28.5Z" fill="var(--fill-0, #005657)"/>
<path fill-rule="evenodd" clip-rule="evenodd" d="M10 23C8.34315 23 7 24.3431 7 26V36C7 37.6569 8.34315 39 10 39H12C13.0666 39 14.0031 38.4434 14.5351 37.6049C15.4338 38.4689 16.6549 39.0001 18 39.0001C18.0972 39.0001 18.1939 38.9973 18.2899 38.9918C18.4368 38.9834 18.5809 38.9881 18.7751 38.9944L18.9094 38.9986C18.9395 38.9995 18.9697 39 19 39H33C35.2091 39 37 37.2091 37 35V34.9646C38.6961 34.7219 40 33.2632 40 31.5C40 30.7434 39.7599 30.0429 39.3519 29.4705C40.3416 28.8522 41 27.753 41 26.5C41 25.5207 40.5978 24.6353 39.9495 24C40.5978 23.3647 41 22.4793 41 21.5C41 19.567 39.433 18 37.5 18H28.5C28.3669 18 28.2974 17.984 28.266 17.9727C28.2521 17.9403 28.2215 17.8477 28.2166 17.6449C28.2011 17.0034 28.4411 16.0478 28.772 14.7818L28.7935 14.6997C29.1566 13.3109 29.5996 11.6166 29.5391 10.1328C29.5074 9.35544 29.3372 8.55652 28.8869 7.85849C28.425 7.14256 27.7235 6.61838 26.7888 6.31506C25.8529 6.01136 25.013 6.3326 24.4238 6.83376C23.8549 7.3176 23.4584 8.00549 23.2506 8.67539C22.7723 10.2169 21.6745 11.4426 20.3249 12.9197L20.2777 12.9713C18.3204 15.1132 16 17.6523 16 22C16 22.1693 15.864 22.4531 15.4535 22.6964C14.9377 23.0022 14.4812 23.3985 14.1061 23.8636C13.5645 23.3296 12.8207 23 12 23H10ZM13 36C13 36.5523 12.5523 37 12 37H10C9.44772 37 9 36.5523 9 36V26C9 25.4477 9.44772 25 10 25H12C12.5523 25 13 25.4477 13 26V36ZM18 37.0001C16.3431 37.0001 15 35.657 15 34.0001V27.0001C15 25.9023 15.5891 24.941 16.4733 24.4169C17.2031 23.9843 18 23.1564 18 22C18 18.4647 19.8217 16.4353 21.8014 14.2688L21.8685 14.1953C23.14 12.8042 24.5383 11.2743 25.1608 9.26804C25.2802 8.88298 25.4957 8.54764 25.7195 8.35724C25.923 8.18416 26.0566 8.18014 26.1714 8.21739C26.722 8.39606 27.0232 8.65885 27.2063 8.94272C27.401 9.24449 27.5181 9.65821 27.5408 10.2142C27.5878 11.3677 27.2267 12.785 26.837 14.2762L26.8081 14.3864C26.5158 15.5038 26.194 16.7339 26.2172 17.6932C26.2295 18.2044 26.3395 18.8141 26.7637 19.299C27.215 19.8149 27.8505 20 28.5 20H37.5C38.3284 20 39 20.6716 39 21.5C39 22.3284 38.3284 23 37.5 23C36.9477 23 36.5 23.4477 36.5 24C36.5 24.5523 36.9477 25 37.5 25C38.3284 25 39 25.6716 39 26.5C39 27.3284 38.3284 28 37.5 28H36.5C35.9477 28 35.5 28.4477 35.5 29C35.5 29.5523 35.9477 30 36.5 30C37.3284 30 38 30.6716 38 31.5C38 32.3284 37.3284 33 36.5 33C35.6716 33 35 33.6716 35 34.5V35C35 36.1046 34.1046 37 33 37H19C18.9895 37 18.9791 36.9998 18.9688 36.9995L18.8673 36.9962C18.6721 36.9895 18.4213 36.981 18.1754 36.9951C18.1175 36.9984 18.059 37.0001 18 37.0001ZM28.2445 17.9619C28.2445 17.9619 28.2487 17.9633 28.2546 17.9681C28.2514 17.9666 28.2474 17.9644 28.2474 17.9644L28.2456 17.9631L28.2445 17.9619Z" fill="var(--fill-0, #005657)"/>
<path fill-rule="evenodd" clip-rule="evenodd" d="M5 0C2.23858 0 0 2.23857 0 5V41C0 43.7614 2.23858 46 5 46H10C10.5523 46 11 46.4477 11 47V53.163C11 54.9225 13.1082 55.8246 14.381 54.6097L23.1108 46.2766C23.2969 46.0991 23.5441 46 23.8013 46H43C45.7614 46 48 43.7614 48 41V5C48 2.23858 45.7614 0 43 0H5ZM2 5C2 3.34315 3.34315 2 5 2H43C44.6569 2 46 3.34315 46 5V41C46 42.6569 44.6569 44 43 44H23.8013C23.0298 44 22.288 44.2972 21.7299 44.8299L13 53.163L13 47C13 45.3431 11.6569 44 10 44H5C3.34315 44 2 42.6569 2 41V5Z" fill="var(--fill-0, #005657)"/>
</g>
</svg>
