<svg preserveAspectRatio="none" width="100%" height="100%" overflow="visible" style="display: block;" viewBox="0 0 55.0663 56" fill="none" xmlns="http://www.w3.org/2000/svg">
<g id="Vector">
<path fill-rule="evenodd" clip-rule="evenodd" d="M38 26.5C38 28.9853 35.9853 31 33.5 31C31.0147 31 29 28.9853 29 26.5C29 24.0147 31.0147 22 33.5 22C35.9853 22 38 24.0147 38 26.5ZM36 26.5C36 27.8807 34.8807 29 33.5 29C32.1193 29 31 27.8807 31 26.5C31 25.1193 32.1193 24 33.5 24C34.8807 24 36 25.1193 36 26.5Z" fill="var(--fill-0, #005657)"/>
<path fill-rule="evenodd" clip-rule="evenodd" d="M30.7436 18.1633C31.0358 16.897 32.1634 16 33.4629 16H33.5368C34.8363 16 35.9639 16.897 36.2561 18.1633C36.3783 18.6925 36.9853 18.944 37.4459 18.6561C38.5479 17.9673 39.9796 18.1303 40.8985 19.0493L40.9507 19.1014C41.8696 20.0204 42.0327 21.452 41.3439 22.5541C41.056 23.0147 41.3074 23.6217 41.8367 23.7438C43.103 24.0361 44 25.1637 44 26.4632V26.5371C44 27.8366 43.103 28.9642 41.8368 29.2564C41.3077 29.3785 41.0563 29.9854 41.3441 30.4459C42.0328 31.5479 41.8698 32.9794 40.9509 33.8983L40.8987 33.9505C39.9797 34.8695 38.5481 35.0325 37.446 34.3437C36.9854 34.0558 36.3783 34.3073 36.2562 34.8366C35.9639 36.1029 34.8363 37 33.5367 37H33.463C32.1634 37 31.0358 36.1029 30.7436 34.8366C30.6214 34.3074 30.0144 34.056 29.5539 34.3438C28.4519 35.0325 27.0203 34.8695 26.1014 33.9506L26.0491 33.8983C25.1302 32.9794 24.9672 31.5479 25.6559 30.4459C25.9437 29.9854 25.6923 29.3785 25.1632 29.2564C23.897 28.9642 23 27.8366 23 26.5371V26.4632C23 25.1637 23.897 24.0361 25.1633 23.7438C25.6926 23.6217 25.944 23.0147 25.6561 22.5541C24.9673 21.452 25.1304 20.0204 26.0493 19.1014L26.1016 19.0492C27.0205 18.1303 28.452 17.9673 29.554 18.656C30.0145 18.9438 30.6215 18.6925 30.7436 18.1633ZM33.4629 18C33.0947 18 32.7752 18.2542 32.6924 18.613C32.2614 20.4805 30.1193 21.3679 28.494 20.352C28.1818 20.1569 27.7761 20.2031 27.5158 20.4634L27.4635 20.5157C27.2031 20.7761 27.1569 21.1818 27.3521 21.4941C28.368 23.1194 27.4807 25.2616 25.613 25.6926C25.2542 25.7754 25 26.095 25 26.4632V26.5371C25 26.9053 25.2541 27.2248 25.6129 27.3076C27.4805 27.7386 28.3677 29.8806 27.3519 31.5059C27.1567 31.8181 27.2029 32.2237 27.4633 32.4841L27.5156 32.5364C27.776 32.7968 28.1816 32.843 28.4939 32.6478C30.1193 31.6319 32.2614 32.5194 32.6924 34.3869C32.7752 34.7458 33.0947 35 33.463 35H33.5367C33.905 35 34.2246 34.7458 34.3074 34.3869C34.7384 32.5192 36.8806 31.6318 38.506 32.6477C38.8184 32.8429 39.2241 32.7967 39.4845 32.5363L39.5367 32.4841C39.7971 32.2237 39.8433 31.8181 39.6481 31.5059C38.6323 29.8806 39.5195 27.7386 41.3871 27.3076C41.7459 27.2248 42 26.9053 42 26.5371V26.4632C42 26.095 41.7458 25.7754 41.387 25.6926C39.5193 25.2616 38.632 23.1194 39.6479 21.4941C39.8431 21.1818 39.7969 20.7761 39.5365 20.5157L39.4843 20.4635C39.2239 20.2031 38.8182 20.1569 38.5059 20.3521C36.8805 21.3679 34.7384 20.4807 34.3074 18.613C34.2245 18.2542 33.905 18 33.5368 18H33.4629Z" fill="var(--fill-0, #005657)"/>
<path fill-rule="evenodd" clip-rule="evenodd" d="M8 3C8 1.34315 9.34315 0 11 0C12.6569 0 14 1.34315 14 3C14 3.46315 13.895 3.90178 13.7076 4.29342L15.6213 6.20711C15.8089 6.39464 16.0632 6.5 16.3284 6.5H24.1716C24.9672 6.5 25.7303 6.81607 26.2929 7.37868L28.4797 9.56547C29.9226 9.19621 31.437 9 32.9999 9C42.1036 9 49.5632 15.7211 50.815 24.4689C51.0592 26.1752 51.3713 27.8882 52.0887 29.4555L54.7935 35.3644C55.4664 36.8344 54.8534 38.5733 53.4073 39.2963L50.9825 40.5087C50.3706 40.8147 49.9575 41.4122 49.8874 42.0928L49.4536 46.3072C49.2961 47.837 48.0073 49 46.4694 49H42.9999V56H25.9999V50H22.8293C22.4175 51.1652 21.3062 52 20 52C18.3431 52 17 50.6569 17 49C17 47.3431 18.3431 46 20 46C21.3062 46 22.4175 46.8348 22.8293 48H25.9999V44.8784C25.9999 44.1863 25.7583 43.5363 25.3506 43H18.3284C18.0632 43 17.8089 43.1054 17.6213 43.2929L14.2929 46.6213C14.1054 46.8089 14 47.0632 14 47.3284V50.1707C15.1652 50.5825 16 51.6938 16 53C16 54.6569 14.6569 56 13 56C11.3431 56 10 54.6569 10 53C10 51.6938 10.8348 50.5825 12 50.1707V47.3284C12 46.5328 12.3161 45.7697 12.8787 45.2071L16.2071 41.8787C16.7697 41.3161 17.5328 41 18.3284 41H22.6771C22.0411 40.5348 21.4294 40.0339 20.8483 39.5H14.3284C14.0632 39.5 13.8089 39.6054 13.6213 39.7929L9.70763 43.7066C9.89505 44.0982 10 44.5369 10 45C10 46.6569 8.65685 48 7 48C5.34315 48 4 46.6569 4 45C4 43.3431 5.34315 42 7 42C7.46315 42 7.90178 42.1049 8.29342 42.2924L12.2071 38.3787C12.7697 37.8161 13.5328 37.5 14.3284 37.5H18.9478C18.4231 36.8649 17.9396 36.1972 17.5043 35.5H14.8284C14.0328 35.5 13.2697 35.1839 12.7071 34.6213L10.3787 32.2929C10.1911 32.1054 9.93679 32 9.67157 32H5.82929C5.41746 33.1652 4.30622 34 3 34C1.34315 34 0 32.6569 0 31C0 29.3431 1.34315 28 3 28C4.30622 28 5.41746 28.8348 5.82929 30H9.67157C10.4672 30 11.2303 30.3161 11.7929 30.8787L14.1213 33.2071C14.3089 33.3946 14.5632 33.5 14.8284 33.5H16.4289C15.5203 31.5028 14.9999 29.3164 14.9999 27H11.8293C11.4175 28.1652 10.3062 29 9 29C7.34315 29 6 27.6569 6 26C6 24.3431 7.34315 23 9 23C10.3062 23 11.4175 23.8348 11.8293 25H15.1083C15.3629 22.6674 16.0581 20.4726 17.1096 18.5H13.8284C13.5632 18.5 13.3089 18.6054 13.1213 18.7929L10.7929 21.1213C10.2303 21.6839 9.46722 22 8.67157 22H5.82929C5.41746 23.1652 4.30622 24 3 24C1.34315 24 0 22.6569 0 21C0 19.3431 1.34315 18 3 18C4.30622 18 5.41746 18.8348 5.82929 20H8.67157C8.93679 20 9.19114 19.8946 9.37868 19.7071L11.7071 17.3787C12.2697 16.8161 13.0328 16.5 13.8284 16.5H18.3511C18.9948 15.6007 19.7196 14.7639 20.5151 14H11.8293C11.4175 15.1652 10.3062 16 9 16C7.34315 16 6 14.6569 6 13C6 11.3431 7.34315 10 9 10C10.3062 10 11.4175 10.8348 11.8293 12H23V12.0057C24.042 11.312 25.1614 10.7242 26.3433 10.2575L24.8787 8.79289C24.6911 8.60536 24.4368 8.5 24.1716 8.5H16.3284C15.5328 8.5 14.7697 8.18393 14.2071 7.62132L12.2934 5.70763C11.9018 5.89505 11.4631 6 11 6C9.34315 6 8 4.65685 8 3ZM11 2C10.4477 2 10 2.44772 10 3C10 3.55228 10.4477 4 11 4C11.5523 4 12 3.55228 12 3C12 2.44772 11.5523 2 11 2ZM20 48C20.5523 48 21 48.4477 21 49C21 49.5523 20.5523 50 20 50C19.4477 50 19 49.5523 19 49C19 48.4477 19.4477 48 20 48ZM4 31C4 30.4477 3.55228 30 3 30C2.44772 30 2 30.4477 2 31C2 31.5523 2.44772 32 3 32C3.55228 32 4 31.5523 4 31ZM3 20C3.55228 20 4 20.4477 4 21C4 21.5523 3.55228 22 3 22C2.44772 22 2 21.5523 2 21C2 20.4477 2.44772 20 3 20ZM38.4999 48C38.4999 47.4477 38.9477 47 39.4999 47H46.4694C46.982 47 47.4116 46.6123 47.4641 46.1024L47.5779 44.997C47.5522 44.999 47.5262 45 47.5 45H45C44.4477 45 44 44.5523 44 44C44 43.4477 44.4477 43 45 43H47.5C47.597 43 47.6907 43.0138 47.7794 43.0396L47.898 41.888C48.0381 40.5268 48.8642 39.3318 50.0881 38.7199L52.5129 37.5074C52.9949 37.2664 53.1993 36.6868 52.975 36.1968L50.2702 30.288C49.4242 28.4398 49.0825 26.4801 48.8352 24.7522C47.7212 16.9678 41.0868 11 32.9999 11C24.1151 11 16.9999 18.1205 16.9999 27C16.9999 32.6058 20.5423 37.5009 25.3745 40.3905C26.8798 41.2907 27.9999 42.9326 27.9999 44.8784V54H40.9999V49H39.4999C38.9477 49 38.4999 48.5523 38.4999 48ZM8 13C8 12.4477 8.44772 12 9 12C9.55228 12 10 12.4477 10 13C10 13.5523 9.55228 14 9 14C8.44772 14 8 13.5523 8 13ZM7 44C6.44772 44 6 44.4477 6 45C6 45.5523 6.44772 46 7 46C7.55228 46 8 45.5523 8 45C8 44.4477 7.55228 44 7 44ZM12 53C12 52.4477 12.4477 52 13 52C13.5523 52 14 52.4477 14 53C14 53.5523 13.5523 54 13 54C12.4477 54 12 53.5523 12 53ZM8 26C8 25.4477 8.44772 25 9 25C9.55228 25 10 25.4477 10 26C10 26.5523 9.55228 27 9 27C8.44772 27 8 26.5523 8 26Z" fill="var(--fill-0, #005657)"/>
</g>
</svg>
