<svg preserveAspectRatio="none" width="100%" height="100%" overflow="visible" style="display: block;" viewBox="0 0 57 48" fill="none" xmlns="http://www.w3.org/2000/svg">
<g id="Vector">
<path d="M46 5C46 5.55228 45.5523 6 45 6C44.4477 6 44 5.55228 44 5C44 4.44772 44.4477 4 45 4C45.5523 4 46 4.44772 46 5Z" fill="var(--fill-0, #005657)"/>
<path d="M48 6C48.5523 6 49 5.55228 49 5C49 4.44772 48.5523 4 48 4C47.4477 4 47 4.44772 47 5C47 5.55228 47.4477 6 48 6Z" fill="var(--fill-0, #005657)"/>
<path d="M52 5C52 5.55228 51.5523 6 51 6C50.4477 6 50 5.55228 50 5C50 4.44772 50.4477 4 51 4C51.5523 4 52 4.44772 52 5Z" fill="var(--fill-0, #005657)"/>
<path d="M28 21C28 20.4477 28.4477 20 29 20H37C37.5523 20 38 20.4477 38 21C38 21.5523 37.5523 22 37 22H29C28.4477 22 28 21.5523 28 21Z" fill="var(--fill-0, #005657)"/>
<path d="M35 23C34.4477 23 34 23.4477 34 24C34 24.5523 34.4477 25 35 25H42C42.5523 25 43 24.5523 43 24C43 23.4477 42.5523 23 42 23H35Z" fill="var(--fill-0, #005657)"/>
<path d="M28 27C28 26.4477 28.4477 26 29 26H35C35.5523 26 36 26.4477 36 27C36 27.5523 35.5523 28 35 28H29C28.4477 28 28 27.5523 28 27Z" fill="var(--fill-0, #005657)"/>
<path d="M29 32C28.4477 32 28 32.4477 28 33C28 33.5523 28.4477 34 29 34H35C35.5523 34 36 33.5523 36 33C36 32.4477 35.5523 32 35 32H29Z" fill="var(--fill-0, #005657)"/>
<path d="M28 30C28 29.4477 28.4477 29 29 29H32C32.5523 29 33 29.4477 33 30C33 30.5523 32.5523 31 32 31H29C28.4477 31 28 30.5523 28 30Z" fill="var(--fill-0, #005657)"/>
<path d="M38 32C37.4477 32 37 32.4477 37 33C37 33.5523 37.4477 34 38 34H41C41.5523 34 42 33.5523 42 33C42 32.4477 41.5523 32 41 32H38Z" fill="var(--fill-0, #005657)"/>
<path d="M28 36C28 35.4477 28.4477 35 29 35H32C32.5523 35 33 35.4477 33 36C33 36.5523 32.5523 37 32 37H29C28.4477 37 28 36.5523 28 36Z" fill="var(--fill-0, #005657)"/>
<path d="M35 29C34.4477 29 34 29.4477 34 30C34 30.5523 34.4477 31 35 31H40C40.5523 31 41 30.5523 41 30C41 29.4477 40.5523 29 40 29H35Z" fill="var(--fill-0, #005657)"/>
<path d="M39 21C39 20.4477 39.4477 20 40 20H47C47.5523 20 48 20.4477 48 21C48 21.5523 47.5523 22 47 22H40C39.4477 22 39 21.5523 39 21Z" fill="var(--fill-0, #005657)"/>
<path d="M29 23C28.4477 23 28 23.4477 28 24C28 24.5523 28.4477 25 29 25H32C32.5523 25 33 24.5523 33 24C33 23.4477 32.5523 23 32 23H29Z" fill="var(--fill-0, #005657)"/>
<path d="M44 24C44 23.4477 44.4477 23 45 23H46C46.5523 23 47 23.4477 47 24C47 24.5523 46.5523 25 46 25H45C44.4477 25 44 24.5523 44 24Z" fill="var(--fill-0, #005657)"/>
<path d="M43 29C42.4477 29 42 29.4477 42 30C42 30.5523 42.4477 31 43 31H44C44.5523 31 45 30.5523 45 30C45 29.4477 44.5523 29 44 29H43Z" fill="var(--fill-0, #005657)"/>
<path d="M37 27C37 26.4477 37.4477 26 38 26H41C41.5523 26 42 26.4477 42 27C42 27.5523 41.5523 28 41 28H38C37.4477 28 37 27.5523 37 27Z" fill="var(--fill-0, #005657)"/>
<path fill-rule="evenodd" clip-rule="evenodd" d="M11 26C11.2968 26 11.5634 26.1293 11.7465 26.3346C11.9042 26.5114 12 26.7445 12 27V37C12 37.5523 11.5523 38 11 38C10.4477 38 10 38.4477 10 39C10 39.5523 10.4477 40 11 40H19C19.5523 40 20 39.5523 20 39C20 38.4477 19.5523 38 19 38C18.4477 38 18 37.5523 18 37V26C18 25.4477 17.5523 25 17 25H10.5C10.2239 25 10 25.2239 10 25.5C10 25.7761 10.2239 26 10.5 26H11ZM14 37V27H16V37C16 37.3506 16.0602 37.6872 16.1707 38H13.8293C13.9398 37.6872 14 37.3506 14 37Z" fill="var(--fill-0, #005657)"/>
<path fill-rule="evenodd" clip-rule="evenodd" d="M15 22C16.6569 22 18 20.6569 18 19C18 17.3431 16.6569 16 15 16C13.3431 16 12 17.3431 12 19C12 20.6569 13.3431 22 15 22ZM16 19C16 19.5523 15.5523 20 15 20C14.4477 20 14 19.5523 14 19C14 18.4477 14.4477 18 15 18C15.5523 18 16 18.4477 16 19Z" fill="var(--fill-0, #005657)"/>
<path fill-rule="evenodd" clip-rule="evenodd" d="M0 46C0 47.1046 0.89543 48 2 48H55C56.1046 48 57 47.1046 57 46V2C57 0.895431 56.1046 0 55 0H2C0.895431 0 0 0.895432 0 2V46ZM2 2H55V8.13378C54.8529 8.0487 54.6821 8 54.5 8H2L2 2ZM2 10H54.5C54.6821 10 54.8529 9.9513 55 9.86622V46H2L2 10Z" fill="var(--fill-0, #005657)"/>
</g>
</svg>
